<svg width="22" height="21" viewBox="0 0 22 21" fill="none" xmlns="http://www.w3.org/2000/svg">
<path d="M8.375 4.725V7.875H5.225V4.725H8.375ZM9.95 3.15H3.65V9.45H9.95V3.15ZM8.375 13.125V16.275H5.225V13.125H8.375ZM9.95 11.55H3.65V17.85H9.95V11.55ZM16.775 4.725V7.875H13.625V4.725H16.775ZM18.35 3.15H12.05V9.45H18.35V3.15ZM12.05 11.55H13.625V13.125H12.05V11.55ZM13.625 13.125H15.2V14.7H13.625V13.125ZM15.2 11.55H16.775V13.125H15.2V11.55ZM12.05 14.7H13.625V16.275H12.05V14.7ZM13.625 16.275H15.2V17.85H13.625V16.275ZM15.2 14.7H16.775V16.275H15.2V14.7ZM16.775 13.125H18.35V14.7H16.775V13.125ZM16.775 16.275H18.35V17.85H16.775V16.275ZM21.5 5.25H19.4V2.1H16.25V0H21.5V5.25ZM21.5 21V15.75H19.4V18.9H16.25V21H21.5ZM0.5 21H5.75V18.9H2.6V15.75H0.5V21ZM0.5 0V5.25H2.6V2.1H5.75V0H0.5Z" fill="black"/>
</svg>
