<svg width="30" height="30" viewBox="0 0 30 30" fill="none" xmlns="http://www.w3.org/2000/svg">
<path d="M28.1255 14.9993C28.1255 12.4034 27.3557 9.8658 25.9135 7.70741C24.4713 5.54902 22.4215 3.86675 20.0232 2.87335C17.6249 1.87995 14.9859 1.62003 12.4399 2.12646C9.89393 2.63289 7.55528 3.88293 5.71971 5.71849C3.88415 7.55406 2.63412 9.89271 2.12768 12.4387C1.62125 14.9847 1.88117 17.6237 2.87457 20.022C3.86797 22.4203 5.55024 24.4701 7.70863 25.9123C9.86703 27.3545 12.4046 28.1243 15.0005 28.1243C18.4815 28.1243 21.8199 26.7415 24.2813 24.28C26.7427 21.8186 28.1255 18.4802 28.1255 14.9993ZM22.5005 15.9368L11.1099 15.9368L16.3411 21.1933L15.0005 22.4993L7.50049 14.9993L15.0005 7.49927L16.3411 8.83708L11.1099 14.0618L22.5005 14.0618V15.9368Z" fill="#7DC8C1"/>
</svg>
