<svg width="28" height="28" viewBox="0 0 28 28" fill="none" xmlns="http://www.w3.org/2000/svg">
<path d="M0.875 14C0.875 16.5959 1.64477 19.1335 3.08696 21.2919C4.52915 23.4503 6.579 25.1325 8.97728 26.1259C11.3756 27.1193 14.0146 27.3792 16.5606 26.8728C19.1066 26.3664 21.4452 25.1163 23.2808 23.2808C25.1163 21.4452 26.3664 19.1066 26.8728 16.5606C27.3792 14.0146 27.1193 11.3756 26.1259 8.97728C25.1325 6.579 23.4503 4.52915 21.2919 3.08696C19.1335 1.64477 16.5959 0.875 14 0.875C10.519 0.875 7.18064 2.25781 4.71922 4.71922C2.25781 7.18064 0.875 10.519 0.875 14ZM6.5 13.0625H17.8906L12.6594 7.80594L14 6.5L21.5 14L14 21.5L12.6594 20.1622L17.8906 14.9375H6.5V13.0625Z" fill="#7DC8C1"/>
</svg>
