<svg width="50" height="50" viewBox="0 0 50 50" fill="none" xmlns="http://www.w3.org/2000/svg">
<path d="M17.1889 26.4201L18.3968 27.1516C18.3997 27.1544 18.4053 27.1571 18.4082 27.1599L18.7683 27.3799L18.7768 27.3882C19.5876 27.843 20.5082 28.0812 21.4449 28.0785C22.718 28.0785 23.9174 27.6467 24.8757 26.8739C26.1859 25.8082 27.8415 25.2249 29.5513 25.2264C31.0342 25.2264 32.4491 25.6582 33.6513 26.4503L33.8753 26.5878L30.711 18.6393V13.8647H32.5115C32.6362 13.8647 32.7383 13.7657 32.7383 13.6447V12.22C32.7383 12.099 32.6362 12 32.5115 12H18.4876C18.3628 12 18.2607 12.099 18.2607 12.22V13.6475C18.2607 13.7685 18.3628 13.8675 18.4876 13.8675H20.288V18.6421L17.1889 26.4201ZM26.6308 20.8341C27.2546 20.8341 27.7622 21.3264 27.7622 21.9315C27.7622 22.5366 27.2546 23.0289 26.6308 23.0289C26.0071 23.0289 25.4995 22.5366 25.4995 21.9315C25.4995 21.3264 26.0071 20.8341 26.6308 20.8341ZM35.8771 31.6127L35.0293 29.4839L32.5994 28.0125L32.5965 28.0153C32.5767 28.0015 32.554 27.9877 32.5342 27.974L32.3045 27.8365L32.296 27.8282C31.4737 27.3469 30.5295 27.0911 29.5456 27.0911C28.2725 27.0911 27.0732 27.5229 26.1148 28.2958C24.8046 29.3614 23.149 29.9448 21.4392 29.9432C19.9364 29.9432 18.5046 29.5004 17.2938 28.6891L16.4744 28.1913L15.1219 31.6127C15.0425 31.8162 15 32.0308 15 32.2453C15 33.2134 15.8109 34 16.809 34H34.1872C34.4112 34 34.6324 33.9587 34.8394 33.8817C35.0616 33.7995 35.2649 33.6754 35.4375 33.5167C35.6101 33.3579 35.7486 33.1676 35.8451 32.9567C35.9415 32.7458 35.994 32.5185 35.9995 32.2878C36.005 32.0571 35.9634 31.8277 35.8771 31.6127Z" fill="#7DC8C1"/>
<path d="M50 25C50 38.8071 38.8071 50 25 50C11.1929 50 0 38.8071 0 25C0 11.1929 11.1929 0 25 0C38.8071 0 50 11.1929 50 25Z" fill="#BFBFC6" fill-opacity="0.18"/>
</svg>
