<svg width="19" height="21" viewBox="0 0 19 21" fill="none" xmlns="http://www.w3.org/2000/svg">
<path d="M2.62299 5.49984H4.1827M4.1827 5.49984H16.6604M4.1827 5.49984V17.1665C4.1827 17.6085 4.34703 18.0325 4.63953 18.345C4.93203 18.6576 5.32875 18.8332 5.74242 18.8332H13.541C13.9547 18.8332 14.3514 18.6576 14.6439 18.345C14.9364 18.0325 15.1007 17.6085 15.1007 17.1665V5.49984H4.1827ZM6.52227 5.49984V3.83317C6.52227 3.39114 6.6866 2.96722 6.9791 2.65466C7.27161 2.3421 7.66833 2.1665 8.08199 2.1665H11.2014C11.6151 2.1665 12.0118 2.3421 12.3043 2.65466C12.5968 2.96722 12.7611 3.39114 12.7611 3.83317V5.49984M8.08199 9.6665V14.6665M11.2014 9.6665V14.6665" stroke="#667085" stroke-width="1.66667" stroke-linecap="round" stroke-linejoin="round"/>
</svg>
