<svg width="50" height="50" viewBox="0 0 50 50" fill="none" xmlns="http://www.w3.org/2000/svg">
<circle cx="25" cy="25" r="25" fill="#BFBFC6" fill-opacity="0.18"/>
<g clip-path="url(#clip0_536_2140)">
<path d="M25 22.5C26.6671 22.5 28.2659 21.8415 29.4447 20.6694C30.6235 19.4973 31.2857 17.9076 31.2857 16.25C31.2857 14.5924 30.6235 13.0027 29.4447 11.8306C28.2659 10.6585 26.6671 10 25 10C23.3329 10 21.7341 10.6585 20.5553 11.8306C19.3765 13.0027 18.7143 14.5924 18.7143 16.25C18.7143 17.9076 19.3765 19.4973 20.5553 20.6694C21.7341 21.8415 23.3329 22.5 25 22.5ZM20.2857 25.1953C16.6518 26.2549 14 29.5947 14 33.5498C14 34.3506 14.6531 35 15.4585 35H34.5415C35.3469 35 36 34.3506 36 33.5498C36 29.5947 33.3482 26.2549 29.7143 25.1953V27.6758C31.0696 28.0225 32.0714 29.248 32.0714 30.7031V32.6562C32.0714 33.0859 31.7179 33.4375 31.2857 33.4375H30.5C30.0679 33.4375 29.7143 33.0859 29.7143 32.6562C29.7143 32.2266 30.0679 31.875 30.5 31.875V30.7031C30.5 29.8389 29.7978 29.1406 28.9286 29.1406C28.0594 29.1406 27.3571 29.8389 27.3571 30.7031V31.875C27.7893 31.875 28.1429 32.2266 28.1429 32.6562C28.1429 33.0859 27.7893 33.4375 27.3571 33.4375H26.5714C26.1393 33.4375 25.7857 33.0859 25.7857 32.6562V30.7031C25.7857 29.248 26.7875 28.0225 28.1429 27.6758V24.8877C27.8482 24.8584 27.5487 24.8438 27.2442 24.8438H22.7558C22.4513 24.8438 22.1518 24.8584 21.8571 24.8877V28.0811C22.9915 28.418 23.8214 29.4629 23.8214 30.7031C23.8214 32.2119 22.5888 33.4375 21.0714 33.4375C19.554 33.4375 18.3214 32.2119 18.3214 30.7031C18.3214 29.4629 19.1513 28.418 20.2857 28.0811V25.1953ZM21.0714 31.875C21.384 31.875 21.6838 31.7515 21.9048 31.5318C22.1258 31.312 22.25 31.0139 22.25 30.7031C22.25 30.3923 22.1258 30.0943 21.9048 29.8745C21.6838 29.6547 21.384 29.5312 21.0714 29.5312C20.7589 29.5312 20.4591 29.6547 20.2381 29.8745C20.017 30.0943 19.8929 30.3923 19.8929 30.7031C19.8929 31.0139 20.017 31.312 20.2381 31.5318C20.4591 31.7515 20.7589 31.875 21.0714 31.875Z" fill="#7DC8C1"/>
</g>
<defs>
<clipPath id="clip0_536_2140">
<rect width="22" height="25" fill="white" transform="translate(14 10)"/>
</clipPath>
</defs>
</svg>
