<svg width="89" height="24" viewBox="0 0 89 24" fill="none" xmlns="http://www.w3.org/2000/svg">
<path d="M1.43466 19V4.45455H10.8949V6.66335H4.0696V10.6122H10.4048V12.821H4.0696V16.7912H10.9517V19H1.43466ZM21.4879 8.45312C21.4216 7.83286 21.1423 7.34991 20.6499 7.00426C20.1622 6.65862 19.5277 6.4858 18.7464 6.4858C18.1972 6.4858 17.7261 6.56866 17.3331 6.73438C16.9401 6.90009 16.6394 7.125 16.4311 7.40909C16.2228 7.69318 16.1162 8.01752 16.1115 8.3821C16.1115 8.68513 16.1802 8.94792 16.3175 9.17045C16.4595 9.39299 16.6513 9.58239 16.8928 9.73864C17.1342 9.89015 17.4018 10.018 17.6953 10.1222C17.9889 10.2263 18.2848 10.3139 18.5831 10.3849L19.9467 10.7259C20.496 10.8537 21.0239 11.0265 21.5305 11.2443C22.0419 11.4621 22.4988 11.7367 22.9013 12.0682C23.3085 12.3996 23.6304 12.7997 23.8672 13.2685C24.1039 13.7372 24.2223 14.2865 24.2223 14.9162C24.2223 15.7685 24.0045 16.5189 23.5689 17.1676C23.1333 17.8116 22.5036 18.3158 21.6797 18.6804C20.8606 19.0402 19.8686 19.2202 18.7038 19.2202C17.5722 19.2202 16.5897 19.045 15.7564 18.6946C14.9278 18.3442 14.2791 17.8329 13.8104 17.1605C13.3464 16.4882 13.0954 15.669 13.0575 14.7031H15.6499C15.6877 15.2098 15.844 15.6312 16.1186 15.9673C16.3932 16.3035 16.7507 16.5545 17.1911 16.7202C17.6361 16.8859 18.1333 16.9688 18.6825 16.9688C19.2554 16.9688 19.7573 16.8835 20.1882 16.7131C20.6238 16.5379 20.9647 16.2964 21.2109 15.9886C21.4571 15.6761 21.5826 15.3116 21.5874 14.8949C21.5826 14.5161 21.4714 14.2036 21.2536 13.9574C21.0357 13.7064 20.7304 13.4981 20.3374 13.3324C19.9491 13.1619 19.4946 13.0104 18.9737 12.8778L17.3189 12.4517C16.121 12.1439 15.174 11.6776 14.478 11.0526C13.7867 10.4228 13.4411 9.58712 13.4411 8.54545C13.4411 7.68845 13.6731 6.93797 14.1371 6.29403C14.6058 5.65009 15.2427 5.15057 16.0476 4.79545C16.8525 4.43561 17.764 4.25568 18.782 4.25568C19.8142 4.25568 20.7185 4.43561 21.495 4.79545C22.2763 5.15057 22.8894 5.64536 23.3345 6.27983C23.7796 6.90956 24.0092 7.634 24.0234 8.45312H21.4879ZM29.2063 4.45455V19H26.5714V4.45455H29.2063Z" fill="#21323A"/>
<path d="M47.8849 9.36222H45.2287C45.1529 8.92661 45.0133 8.54072 44.8097 8.20455C44.6061 7.86364 44.3527 7.57481 44.0497 7.33807C43.7467 7.10133 43.401 6.92377 43.0128 6.8054C42.6293 6.68229 42.215 6.62074 41.7699 6.62074C40.9792 6.62074 40.2784 6.8196 39.6676 7.21733C39.0568 7.61032 38.5786 8.18797 38.233 8.95028C37.8873 9.70786 37.7145 10.6335 37.7145 11.7273C37.7145 12.84 37.8873 13.7775 38.233 14.5398C38.5833 15.2973 39.0616 15.8703 39.6676 16.2585C40.2784 16.642 40.9768 16.8338 41.7628 16.8338C42.1984 16.8338 42.6056 16.777 42.9844 16.6634C43.3679 16.545 43.7112 16.3722 44.0142 16.1449C44.322 15.9176 44.58 15.6383 44.7884 15.3068C45.0014 14.9754 45.1482 14.5966 45.2287 14.1705L47.8849 14.1847C47.7855 14.8759 47.5701 15.5246 47.2386 16.1307C46.9119 16.7367 46.4834 17.2718 45.9531 17.7358C45.4228 18.1951 44.8026 18.5549 44.0923 18.8153C43.3821 19.071 42.5938 19.1989 41.7273 19.1989C40.4489 19.1989 39.3078 18.9029 38.304 18.3111C37.3002 17.7192 36.5095 16.8646 35.9318 15.7472C35.3542 14.6297 35.0653 13.2898 35.0653 11.7273C35.0653 10.16 35.3565 8.82008 35.9389 7.70739C36.5213 6.58996 37.3144 5.73532 38.3182 5.14347C39.322 4.55161 40.4583 4.25568 41.7273 4.25568C42.5369 4.25568 43.2898 4.36932 43.9858 4.59659C44.6818 4.82386 45.3021 5.15767 45.8466 5.59801C46.3911 6.03362 46.8385 6.56866 47.1889 7.20312C47.544 7.83286 47.776 8.55256 47.8849 9.36222ZM51.9901 19H49.1776L54.2983 4.45455H57.5511L62.679 19H59.8665L55.9815 7.4375H55.8679L51.9901 19ZM52.0824 13.2969H59.7528V15.4134H52.0824V13.2969ZM64.5948 19V4.45455H70.0494C71.1668 4.45455 72.1043 4.64867 72.8619 5.03693C73.6242 5.42519 74.1995 5.9697 74.5877 6.67045C74.9807 7.36648 75.1772 8.1785 75.1772 9.10653C75.1772 10.0393 74.9783 10.849 74.5806 11.5355C74.1876 12.2173 73.6076 12.7453 72.8406 13.1193C72.0735 13.4886 71.1313 13.6733 70.0138 13.6733H66.1289V11.4858H69.6587C70.3121 11.4858 70.8472 11.3958 71.2638 11.2159C71.6805 11.0312 71.9883 10.7637 72.1871 10.4134C72.3907 10.0582 72.4925 9.62263 72.4925 9.10653C72.4925 8.59044 72.3907 8.15009 72.1871 7.78551C71.9835 7.41619 71.6734 7.13684 71.2567 6.94744C70.8401 6.75331 70.3027 6.65625 69.6445 6.65625H67.2298V19H64.5948ZM72.109 12.4091L75.7099 19H72.7695L69.2326 12.4091H72.109ZM77.6026 19V4.45455H87.0629V6.66335H80.2376V10.6122H86.5728V12.821H80.2376V16.7912H87.1197V19H77.6026Z" fill="#61CAE8"/>
</svg>
