<svg width="50" height="50" viewBox="0 0 50 50" fill="none" xmlns="http://www.w3.org/2000/svg">
<path d="M25.25 17.86L22.49 20.6L25.8 23.91L24.74 24.97L21.43 21.66L19.66 23.43L22.97 26.74L21.91 27.8L18.6 24.49L16.6 26.49C16.2822 26.7978 16.0754 27.2024 16.0121 27.6403C15.9488 28.0782 16.0324 28.5247 16.25 28.91L17.25 30.8L15 33.09L16.41 34.5L18.7 32.25L20.59 33.25C20.8948 33.4228 21.2396 33.5124 21.59 33.51C21.8539 33.5102 22.1153 33.4582 22.359 33.3569C22.6027 33.2557 22.8239 33.1072 23.01 32.92L31.64 24.25L25.25 17.86ZM33.05 21.45L31.26 19.65L32.68 18.24L34.09 19.65L35.5 18.24L31.26 14L29.85 15.41L31.26 16.83L29.85 18.24L28.05 16.45L26.31 14.7L24.9 16.12L25.93 17.15V17.16L32.34 23.57H32.35L33.38 24.6L34.8 23.19L33.06 21.45H33.05Z" fill="#7DC8C1"/>
<path d="M50 25C50 38.8071 38.8071 50 25 50C11.1929 50 0 38.8071 0 25C0 11.1929 11.1929 0 25 0C38.8071 0 50 11.1929 50 25Z" fill="#BFBFC6" fill-opacity="0.18"/>
</svg>
