<svg width="31" height="32" viewBox="0 0 31 32" fill="none" xmlns="http://www.w3.org/2000/svg">
<path fill-rule="evenodd" clip-rule="evenodd" d="M15.5 5.33329C13.6926 5.33295 11.9168 5.82194 10.3498 6.75146C8.78269 7.68098 7.47922 9.01852 6.56943 10.6306C5.65964 12.2426 5.17537 14.0728 5.16494 15.9384C5.15451 17.804 5.61829 19.6398 6.50999 21.2626C7.1127 20.4541 7.88747 19.7994 8.7744 19.3493C9.66133 18.8991 10.6367 18.6656 11.625 18.6666H19.375C20.3633 18.6656 21.3387 18.8991 22.2256 19.3493C23.1125 19.7994 23.8873 20.4541 24.49 21.2626C25.3817 19.6398 25.8455 17.804 25.835 15.9384C25.8246 14.0728 25.3403 12.2426 24.4306 10.6306C23.5208 9.01852 22.2173 7.68098 20.6502 6.75146C19.0832 5.82194 17.3073 5.33295 15.5 5.33329ZM25.7597 24.1013C25.9216 23.8835 26.0766 23.6604 26.2247 23.432C27.6567 21.2356 28.42 18.6475 28.4167 16C28.4167 8.63596 22.6339 2.66663 15.5 2.66663C8.36612 2.66663 2.58333 8.63596 2.58333 16C2.57926 18.929 3.51338 21.7772 5.24028 24.1013L5.23383 24.1253L5.69237 24.676C6.9038 26.138 8.40795 27.3114 10.1011 28.1155C11.7943 28.9195 13.6362 29.335 15.5 29.3333C15.779 29.3333 16.0563 29.3244 16.3318 29.3066C18.6625 29.1549 20.9091 28.3506 22.8302 26.98C23.749 26.3257 24.5817 25.5512 25.3076 24.676L25.7662 24.1253L25.7597 24.1013ZM15.5 7.99996C14.4723 7.99996 13.4867 8.42139 12.76 9.17153C12.0333 9.92168 11.625 10.9391 11.625 12C11.625 13.0608 12.0333 14.0782 12.76 14.8284C13.4867 15.5785 14.4723 16 15.5 16C16.5277 16 17.5133 15.5785 18.24 14.8284C18.9667 14.0782 19.375 13.0608 19.375 12C19.375 10.9391 18.9667 9.92168 18.24 9.17153C17.5133 8.42139 16.5277 7.99996 15.5 7.99996Z" fill="#61CAE8"/>
</svg>
