<svg width="51" height="50" viewBox="0 0 51 50" fill="none" xmlns="http://www.w3.org/2000/svg">
<rect x="0.5" width="50" height="50" rx="25" fill="#BFBFC6" fill-opacity="0.18"/>
<path d="M18.5 35C17.95 35 17.4793 34.8043 17.088 34.413C16.6967 34.0217 16.5007 33.5507 16.5 33V19C16.5 18.45 16.696 17.9793 17.088 17.588C17.48 17.1967 17.9507 17.0007 18.5 17H19.5V15H21.5V17H29.5V15H31.5V17H32.5C33.05 17 33.521 17.196 33.913 17.588C34.305 17.98 34.5007 18.4507 34.5 19V33C34.5 33.55 34.3043 34.021 33.913 34.413C33.5217 34.805 33.0507 35.0007 32.5 35H18.5ZM22.5 33H24V30.925C24 30.825 23.9417 30.6667 23.825 30.45L21.825 28.1C21.7083 27.9667 21.625 27.825 21.575 27.675C21.525 27.525 21.5 27.375 21.5 27.225C21.6833 27.3083 21.8707 27.375 22.062 27.425C22.2533 27.475 22.4493 27.5 22.65 27.5C22.9833 27.5 23.3127 27.429 23.638 27.287C23.9633 27.145 24.2507 26.941 24.5 26.675C24.6333 26.5417 24.7877 26.4417 24.963 26.375C25.1383 26.3083 25.3173 26.275 25.5 26.275C25.7 26.275 25.8877 26.3083 26.063 26.375C26.2383 26.4417 26.384 26.5417 26.5 26.675C26.75 26.9417 27.0417 27.146 27.375 27.288C27.7083 27.43 28.0417 27.5007 28.375 27.5C28.575 27.5 28.7667 27.475 28.95 27.425C29.1333 27.375 29.3167 27.3083 29.5 27.225C29.5 27.375 29.475 27.525 29.425 27.675C29.375 27.825 29.2917 27.9667 29.175 28.1L27.175 30.45C27.125 30.5333 27.0833 30.6127 27.05 30.688C27.0167 30.7633 27 30.8423 27 30.925V33H28.5V31.2L30.3 29.1C30.4833 28.9167 30.646 28.6667 30.788 28.35C30.93 28.0333 31.0007 27.6667 31 27.25C31 27.0333 30.975 26.821 30.925 26.613C30.875 26.405 30.8 26.2007 30.7 26C30.7833 25.8167 30.8543 25.621 30.913 25.413C30.9717 25.205 31.0007 24.9923 31 24.775C31 24.4417 30.946 24.121 30.838 23.813C30.73 23.505 30.559 23.2173 30.325 22.95L28.5 20.8V19H27V21.075C27 21.1583 27.0127 21.2417 27.038 21.325C27.0633 21.4083 27.109 21.4833 27.175 21.55L29.175 23.925C29.275 24.0583 29.354 24.196 29.412 24.338C29.47 24.48 29.4993 24.6257 29.5 24.775C29.5 25.0917 29.396 25.371 29.188 25.613C28.98 25.855 28.709 25.9757 28.375 25.975C28.2417 25.975 28.104 25.95 27.962 25.9C27.82 25.85 27.691 25.7667 27.575 25.65C27.2917 25.3667 26.971 25.15 26.613 25C26.255 24.85 25.884 24.775 25.5 24.775C25.116 24.775 24.7453 24.85 24.388 25C24.0307 25.15 23.7097 25.3667 23.425 25.65C23.325 25.7667 23.2083 25.85 23.075 25.9C22.9417 25.95 22.8 25.975 22.65 25.975C22.3167 25.975 22.0417 25.854 21.825 25.612C21.6083 25.37 21.5 25.0827 21.5 24.75C21.5 24.6 21.525 24.4543 21.575 24.313C21.625 24.1717 21.7083 24.034 21.825 23.9L23.825 21.55C23.875 21.4667 23.9167 21.3873 23.95 21.312C23.9833 21.2367 24 21.1577 24 21.075V19H22.5V20.8L20.7 22.9C20.5167 23.0833 20.354 23.3333 20.212 23.65C20.07 23.9667 19.9993 24.3333 20 24.75C20 24.9833 20.025 25.204 20.075 25.412C20.125 25.62 20.1917 25.816 20.275 26C20.175 26.2 20.104 26.404 20.062 26.612C20.02 26.82 19.9993 27.0327 20 27.25C20 27.6667 20.071 28.0333 20.213 28.35C20.355 28.6667 20.5173 28.9167 20.7 29.1L22.5 31.2V33Z" fill="#7DC8C1"/>
</svg>
