<svg width="50" height="50" viewBox="0 0 50 50" fill="none" xmlns="http://www.w3.org/2000/svg">
<rect width="50" height="50" rx="25" fill="#BFBFC6" fill-opacity="0.18"/>
<path d="M18 35C17.45 35 16.9793 34.8043 16.588 34.413C16.1967 34.0217 16.0007 33.5507 16 33V19C16 18.45 16.196 17.9793 16.588 17.588C16.98 17.1967 17.4507 17.0007 18 17H19V15H21V17H29V15H31V17H32C32.55 17 33.021 17.196 33.413 17.588C33.805 17.98 34.0007 18.4507 34 19V33C34 33.55 33.8043 34.021 33.413 34.413C33.0217 34.805 32.5507 35.0007 32 35H18ZM22 33H23.5V30.925C23.5 30.825 23.4417 30.6667 23.325 30.45L21.325 28.1C21.2083 27.9667 21.125 27.825 21.075 27.675C21.025 27.525 21 27.375 21 27.225C21.1833 27.3083 21.3707 27.375 21.562 27.425C21.7533 27.475 21.9493 27.5 22.15 27.5C22.4833 27.5 22.8127 27.429 23.138 27.287C23.4633 27.145 23.7507 26.941 24 26.675C24.1333 26.5417 24.2877 26.4417 24.463 26.375C24.6383 26.3083 24.8173 26.275 25 26.275C25.2 26.275 25.3877 26.3083 25.563 26.375C25.7383 26.4417 25.884 26.5417 26 26.675C26.25 26.9417 26.5417 27.146 26.875 27.288C27.2083 27.43 27.5417 27.5007 27.875 27.5C28.075 27.5 28.2667 27.475 28.45 27.425C28.6333 27.375 28.8167 27.3083 29 27.225C29 27.375 28.975 27.525 28.925 27.675C28.875 27.825 28.7917 27.9667 28.675 28.1L26.675 30.45C26.625 30.5333 26.5833 30.6127 26.55 30.688C26.5167 30.7633 26.5 30.8423 26.5 30.925V33H28V31.2L29.8 29.1C29.9833 28.9167 30.146 28.6667 30.288 28.35C30.43 28.0333 30.5007 27.6667 30.5 27.25C30.5 27.0333 30.475 26.821 30.425 26.613C30.375 26.405 30.3 26.2007 30.2 26C30.2833 25.8167 30.3543 25.621 30.413 25.413C30.4717 25.205 30.5007 24.9923 30.5 24.775C30.5 24.4417 30.446 24.121 30.338 23.813C30.23 23.505 30.059 23.2173 29.825 22.95L28 20.8V19H26.5V21.075C26.5 21.1583 26.5127 21.2417 26.538 21.325C26.5633 21.4083 26.609 21.4833 26.675 21.55L28.675 23.925C28.775 24.0583 28.854 24.196 28.912 24.338C28.97 24.48 28.9993 24.6257 29 24.775C29 25.0917 28.896 25.371 28.688 25.613C28.48 25.855 28.209 25.9757 27.875 25.975C27.7417 25.975 27.604 25.95 27.462 25.9C27.32 25.85 27.191 25.7667 27.075 25.65C26.7917 25.3667 26.471 25.15 26.113 25C25.755 24.85 25.384 24.775 25 24.775C24.616 24.775 24.2453 24.85 23.888 25C23.5307 25.15 23.2097 25.3667 22.925 25.65C22.825 25.7667 22.7083 25.85 22.575 25.9C22.4417 25.95 22.3 25.975 22.15 25.975C21.8167 25.975 21.5417 25.854 21.325 25.612C21.1083 25.37 21 25.0827 21 24.75C21 24.6 21.025 24.4543 21.075 24.313C21.125 24.1717 21.2083 24.034 21.325 23.9L23.325 21.55C23.375 21.4667 23.4167 21.3873 23.45 21.312C23.4833 21.2367 23.5 21.1577 23.5 21.075V19H22V20.8L20.2 22.9C20.0167 23.0833 19.854 23.3333 19.712 23.65C19.57 23.9667 19.4993 24.3333 19.5 24.75C19.5 24.9833 19.525 25.204 19.575 25.412C19.625 25.62 19.6917 25.816 19.775 26C19.675 26.2 19.604 26.404 19.562 26.612C19.52 26.82 19.4993 27.0327 19.5 27.25C19.5 27.6667 19.571 28.0333 19.713 28.35C19.855 28.6667 20.0173 28.9167 20.2 29.1L22 31.2V33Z" fill="#7DC8C1"/>
</svg>
