<svg width="16" height="16" viewBox="0 0 16 16" fill="none" xmlns="http://www.w3.org/2000/svg">
<g opacity="0.8">
<path d="M14 9.3335C13.8232 9.3335 13.6536 9.40373 13.5286 9.52876C13.4036 9.65378 13.3333 9.82335 13.3333 10.0002V12.6668C13.3333 12.8436 13.2631 13.0132 13.1381 13.1382C13.013 13.2633 12.8435 13.3335 12.6667 13.3335H3.33333C3.15652 13.3335 2.98695 13.2633 2.86192 13.1382C2.7369 13.0132 2.66666 12.8436 2.66666 12.6668V10.0002C2.66666 9.82335 2.59642 9.65378 2.4714 9.52876C2.34638 9.40373 2.17681 9.3335 1.99999 9.3335C1.82318 9.3335 1.65361 9.40373 1.52859 9.52876C1.40357 9.65378 1.33333 9.82335 1.33333 10.0002V12.6668C1.33333 13.1973 1.54404 13.706 1.91911 14.081C2.29419 14.4561 2.8029 14.6668 3.33333 14.6668H12.6667C13.1971 14.6668 13.7058 14.4561 14.0809 14.081C14.4559 13.706 14.6667 13.1973 14.6667 12.6668V10.0002C14.6667 9.82335 14.5964 9.65378 14.4714 9.52876C14.3464 9.40373 14.1768 9.3335 14 9.3335ZM7.52666 10.4735C7.59006 10.5342 7.66483 10.5818 7.74666 10.6135C7.82646 10.6488 7.91275 10.667 7.99999 10.667C8.08724 10.667 8.17353 10.6488 8.25333 10.6135C8.33516 10.5818 8.40993 10.5342 8.47333 10.4735L11.14 7.80683C11.2655 7.68129 11.3361 7.51103 11.3361 7.3335C11.3361 7.15596 11.2655 6.9857 11.14 6.86016C11.0145 6.73463 10.8442 6.6641 10.6667 6.6641C10.4891 6.6641 10.3189 6.73463 10.1933 6.86016L8.66666 8.3935V2.00016C8.66666 1.82335 8.59642 1.65378 8.4714 1.52876C8.34637 1.40373 8.17681 1.3335 7.99999 1.3335C7.82318 1.3335 7.65361 1.40373 7.52859 1.52876C7.40357 1.65378 7.33333 1.82335 7.33333 2.00016V8.3935L5.80666 6.86016C5.7445 6.798 5.67071 6.7487 5.58949 6.71506C5.50828 6.68142 5.42123 6.6641 5.33333 6.6641C5.24542 6.6641 5.15838 6.68142 5.07716 6.71506C4.99595 6.7487 4.92215 6.798 4.85999 6.86016C4.79784 6.92232 4.74853 6.99611 4.71489 7.07733C4.68125 7.15854 4.66393 7.24559 4.66393 7.3335C4.66393 7.4214 4.68125 7.50845 4.71489 7.58966C4.74853 7.67088 4.79784 7.74467 4.85999 7.80683L7.52666 10.4735Z" fill="#263238"/>
</g>
</svg>
